<svg xmlns="http://www.w3.org/2000/svg" xmlns:xlink="http://www.w3.org/1999/xlink" width="959.33" height="1584.5"><style type="text/css">.st0{clip-path:url(#SVGID_2_);} .st1{opacity:0.03;fill:none;stroke:url(#SVGID_3_);stroke-width:9.292;stroke-linejoin:round;stroke-miterlimit:10;} .st2{opacity:0.03;fill:none;stroke:url(#SVGID_4_);stroke-width:9.292;stroke-linejoin:round;stroke-miterlimit:10;}</style><defs><rect id="SVGID_1_" x="-.25" y="-.29" width="960" height="1585.1"/></defs><clipPath id="SVGID_2_"><use xlink:href="#SVGID_1_" overflow="visible"/></clipPath><g class="st0"><linearGradient id="SVGID_3_" gradientUnits="userSpaceOnUse" x1="-1506.932" y1="-50.52" x2="1718.487" y2="-50.52"><stop offset=".5" stop-color="#fff"/><stop offset="1" stop-color="#fff" stop-opacity="0"/></linearGradient><polyline class="st1" points="105.78,-50.52 1332.97,1163.85 105.78,-50.52 -1121.41,-1264.9 105.78,-50.52 -462.54,2571.72 105.78,-50.52 674.1,-2672.76 105.78,-50.52 441.32,877.84 105.78,-50.52 -229.76,-978.88 105.78,-50.52 -328.69,666.45 105.78,-50.52 540.25,-767.49 105.78,-50.52 1343.55,347.39 105.78,-50.52 -1132,-448.43 105.78,-50.52 -80.44,2594.33 105.78,-50.52 292,-2695.38 105.78,-50.52 826.8,1114.41 105.78,-50.52 -615.25,-1215.46 105.78,-50.52 -439.4,1490.15 105.78,-50.52 650.96,-1591.19 105.78,-50.52 328.68,412.12 105.78,-50.52 -117.13,-513.16 105.78,-50.52 -110.73,425.78 105.78,-50.52 322.29,-526.82 105.78,-50.52 1466.49,1948.88 105.78,-50.52 -1254.94,-2049.92 105.78,-50.52 -829.93,2857.03 105.78,-50.52 1041.48,-2958.07 105.78,-50.52 125.69,343.7 105.78,-50.52 85.86,-444.74 105.78,-50.52 -78.71,-7.97 105.78,-50.52 290.27,-93.07 105.78,-50.52 604.64,3385.56 105.78,-50.52 -393.09,-3486.6 105.78,-50.52 -1502.29,1015.45 105.78,-50.52 1713.84,-1116.49 105.78,-50.52 1159.41,458.92 105.78,-50.52 -947.85,-559.96 105.78,-50.52 -132.64,2200.86 105.78,-50.52 344.19,-2301.9 105.78,-50.52 175.08,740.99 105.78,-50.52 36.48,-842.03 105.78,-50.52 -264.64,97.56 105.78,-50.52 476.2,-198.6 105.78,-50.52 651.4,2489.98 105.78,-50.52 -439.85,-2591.02 105.78,-50.52 -1083.16,1115.37 105.78,-50.52 1294.72,-1216.41 105.78,-50.52 412.12,1887.69 105.78,-50.52 -200.56,-1988.73 105.78,-50.52 -801.3,604.05 105.78,-50.52 1012.85,-705.09 105.78,-50.52 1258.77,1401.43 105.78,-50.52 -1047.21,-1502.48 105.78,-50.52 -573.73,2413.16 105.78,-50.52 785.28,-2514.2 105.78,-50.52 1046.79,1760.08 105.78,-50.52 -835.24,-1861.12 105.78,-50.52 -741.57,1960.21 105.78,-50.52 953.13,-2061.26 105.78,-50.52 683.71,49.75 105.78,-50.52 -472.16,-150.79 105.78,-50.52 58.86,1184.4 105.78,-50.52 152.7,-1285.44"/><linearGradient id="SVGID_4_" gradientUnits="userSpaceOnUse" x1="-1450.003" y1="-50.521" x2="1661.555" y2="-50.521"><stop offset=".5" stop-color="#fff"/><stop offset="1" stop-color="#fff" stop-opacity="0"/></linearGradient><polyline class="st2" points="105.78,-50.52 1435.95,471.26 105.78,-50.52 -1224.39,-572.3 105.78,-50.52 -138.41,2791.76 105.78,-50.52 349.96,-2892.81 105.78,-50.52 539.1,669.61 105.78,-50.52 -327.55,-770.66 105.78,-50.52 -231.24,875.39 105.78,-50.52 442.8,-976.43 105.78,-50.52 1350.87,-325.03 105.78,-50.52 -1139.32,223.99 105.78,-50.52 234.25,2609.97 105.78,-50.52 -22.69,-2711.02 105.78,-50.52 940.02,693.21 105.78,-50.52 -728.46,-794.25 105.78,-50.52 -242.28,1732.06 105.78,-50.52 453.84,-1833.1 105.78,-50.52 375.65,278.66 105.78,-50.52 -164.09,-379.7 105.78,-50.52 -48.28,526.14 105.78,-50.52 259.83,-627.18 105.78,-50.52 1656.91,1160.27 105.78,-50.52 -1445.36,-1261.31 105.78,-50.52 -460.87,3263.9 105.78,-50.52 672.42,-3364.95 105.78,-50.52 171.09,320.62 105.78,-50.52 40.47,-421.66 105.78,-50.52 -67.91,89.03 105.78,-50.52 279.47,-190.07 105.78,-50.52 990.05,3010.97 105.78,-50.52 -778.5,-3112.01 105.78,-50.52 -1326.98,1838.98 105.78,-50.52 1538.54,-1940.02 105.78,-50.52 1185.58,-118.87 105.78,-50.52 -974.02,17.83 105.78,-50.52 137.76,2256.77 105.78,-50.52 73.79,-2357.81 105.78,-50.52 265.3,679.02 105.78,-50.52 -53.74,-780.06 105.78,-50.52 -235.64,290.34 105.78,-50.52 447.19,-391.38 105.78,-50.52 930.77,2118.78 105.78,-50.52 -719.22,-2219.83 105.78,-50.52 -909.45,1712.31 105.78,-50.52 1121,-1813.35 105.78,-50.52 628.73,1663.1 105.78,-50.52 -417.17,-1764.14 105.78,-50.52 -696.19,1066.9 105.78,-50.52 907.75,-1167.94 105.78,-50.52 1391.83,740.88 105.78,-50.52 -1180.28,-841.92 105.78,-50.52 -264.59,2697.49 105.78,-50.52 476.15,-2798.53 105.78,-50.52 1228.43,1201.19 105.78,-50.52 -1016.88,-1302.23 105.78,-50.52 -480.01,2348.34 105.78,-50.52 691.57,-2449.39 105.78,-50.52 677.15,-261.51 105.78,-50.52 -465.59,160.47 105.78,-50.52 204.52,1170.36 105.78,-50.52 7.03,-1271.4"/></g></svg>